<!-- icon666.com - MILLIONS vector ICONS FREE --><svg id="Capa_1" enable-background="new 0 0 512 512" viewBox="0 0 512 512" xmlns="http://www.w3.org/2000/svg"><g><path d="m285.85 496.998h15.026v15.002h-15.026z"></path><path d="m150.902 345.927c0 16.386 13.352 29.717 29.765 29.717s29.765-13.331 29.765-29.717-13.352-29.717-29.765-29.717-29.765 13.331-29.765 29.717zm44.503 0c0 8.114-6.612 14.715-14.739 14.715s-14.739-6.601-14.739-14.715 6.612-14.715 14.739-14.715 14.739 6.601 14.739 14.715z"></path><path d="m360.693 345.927c0-16.386-13.352-29.717-29.765-29.717s-29.765 13.331-29.765 29.717 13.352 29.717 29.765 29.717 29.765-13.332 29.765-29.717zm-44.503 0c0-8.114 6.612-14.715 14.739-14.715s14.739 6.601 14.739 14.715-6.612 14.715-14.739 14.715-14.739-6.602-14.739-14.715z"></path><path d="m497.557 114.607-12.155 8.82c7.57 10.398 11.572 22.714 11.572 35.614v22.216h-22.252c-11.267 0-22.162-3.073-31.684-8.899-2.146-26.592-9.866-51.638-21.999-73.962h15.19c14.735 0 28.945 5.332 40.013 15.015l9.903-11.283c-11.566-10.118-25.884-16.411-41.029-18.194 12.851-11.008 21.017-27.322 21.017-45.513v-38.421h-15.026c0 12.408-10.111 23.387-22.539 23.387h-82.015c-26.92-14.892-57.861-23.387-90.755-23.387s-63.835 8.495-90.755 23.387h-82.015c-12.429 0-22.54-10.979-22.54-23.387h-15.026v38.421c0 18.215 8.186 34.548 21.067 45.557-37.434 4.567-66.529 36.477-66.529 75.064v37.217h37.278c10.667 0 21.067-2.215 30.66-6.459v122.36c-18.677 21.214-30.021 49.013-30.021 79.41 0 66.405 54.112 120.43 120.625 120.43h112.281v-15.002h-112.281c-58.228 0-105.599-47.295-105.599-105.428s47.371-105.427 105.599-105.427h194.51c58.228 0 105.599 47.294 105.599 105.427s-47.371 105.428-105.598 105.428h-37.15v15.002h37.15c66.513 0 120.625-54.025 120.625-120.43 0-30.397-11.344-58.196-30.021-79.41v-122.543c9.705 4.362 20.247 6.642 31.065 6.642h37.278v-37.217c0-16.091-4.995-31.456-14.443-44.435zm-68.99-76.218c8.449 0 16.257-2.8 22.539-7.518v7.55c0 22.889-17.22 41.825-39.402 44.608-11.527-17.081-25.798-32.167-42.169-44.64zm-368.079.032v-7.55c6.282 4.718 14.09 7.518 22.539 7.518h59.032c-16.371 12.473-30.643 27.558-42.169 44.64-22.182-2.783-39.402-21.72-39.402-44.608zm-45.462 142.836v-22.216c0-33.44 27.25-60.646 60.744-60.646h14.786c-12.172 22.396-19.905 47.53-22.022 74.217-9.42 5.659-20.157 8.644-31.256 8.644h-22.252zm67.938 116.528v-109.378h15.378c13.296 0 26.487-1.74 39.207-5.172l-3.92-14.482c-11.442 3.087-23.314 4.652-35.287 4.652h-14.793c6.623-81.081 69.63-146.478 149.71-156.937v22.24c0 55.694-33.522 104.893-85.401 125.339l5.517 13.954c27.671-10.905 51.287-29.621 68.294-54.125 17.412-25.087 26.616-54.537 26.616-85.168v-23.533c2.492-.107 4.995-.173 7.513-.173 85.524 0 156.725 62.343 170.437 143.898-49.234 4.959-87.793 46.576-87.793 97.016v15.226h-179.9c-28.59-.001-54.883 9.987-75.578 26.643zm270.504-26.639v-15.231c0-42.791 33.348-78.069 75.163-82.114v123.984c-20.595-16.575-46.734-26.542-75.163-26.639z"></path><path d="m188.179 180.906h15.026v30.004h-15.026z"></path><path d="m308.389 180.906h15.026v30.004h-15.026z"></path><path d="m165.64 53.391h15.026v15.002h-15.026z"></path><path d="m195.405 53.391h15.026v15.002h-15.026z"></path></g></svg>