<!-- icon666.com - MILLIONS vector ICONS FREE --><svg version="1.1" id="Capa_1" xmlns="http://www.w3.org/2000/svg" xmlns:xlink="http://www.w3.org/1999/xlink" x="0px" y="0px" viewBox="0 0 53.111 53.111" style="enable-background:new 0 0 53.111 53.111;" xml:space="preserve"><g><g><path d="M30.482,45.806c-1.379,0-2.5,1.122-2.5,2.5c0,0.552,0.447,1,1,1s1-0.448,1-1c0-0.276,0.225-0.5,0.5-0.5s0.5,0.224,0.5,0.5 c0,0.552,0.447,1,1,1s1-0.448,1-1C32.982,46.927,31.861,45.806,30.482,45.806z"></path><path d="M23.482,45.806c-1.379,0-2.5,1.122-2.5,2.5c0,0.552,0.447,1,1,1s1-0.448,1-1c0-0.276,0.225-0.5,0.5-0.5s0.5,0.224,0.5,0.5 c0,0.552,0.447,1,1,1s1-0.448,1-1C25.982,46.927,24.861,45.806,23.482,45.806z"></path><path d="M32.982,28.806c-1.683,0-3,1.757-3,4c0,2.243,1.317,4,3,4c1.683,0,3-1.757,3-4S34.665,28.806,32.982,28.806z M32.982,34.806c-0.408,0-1-0.779-1-2c0-1.221,0.592-2,1-2s1,0.779,1,2C33.982,34.026,33.39,34.806,32.982,34.806z"></path><path d="M23.982,32.806c0-2.243-1.317-4-3-4s-3,1.757-3,4c0,2.243,1.317,4,3,4S23.982,35.049,23.982,32.806z M19.982,32.806 c0-1.221,0.592-2,1-2s1,0.779,1,2c0,1.221-0.592,2-1,2S19.982,34.026,19.982,32.806z"></path><path d="M48.273,24.674c2.106-1.559,3.459-3.945,3.459-6.618c0-3.399-2.206-6.457-5.557-7.796 c-0.493-3.951-4.095-6.954-8.506-6.954c-1.704,0-3.35,0.462-4.746,1.318c-1.353-2.326-3.994-3.818-6.941-3.818 c-3.086,0-5.821,1.622-7.11,4.127c-0.806-0.25-1.647-0.377-2.515-0.377c-4.343,0-7.875,3.252-7.875,7.25 c0,0.192,0.008,0.385,0.024,0.577c-3.254,0.929-5.524,3.708-5.524,6.923c0,1.948,0.843,3.715,2.205,5.018 c-1.221,1.191-6.199,6.413-5.002,11.325c0.066,0.271,0.242,0.501,0.485,0.637c0.15,0.083,0.318,0.126,0.486,0.126 c0.105,0,0.21-0.017,0.312-0.05l8.267-2.711L9.24,38.746c-0.313,3.216,0.74,6.337,2.965,8.788 c2.752,3.033,7.018,4.772,11.703,4.772h5.448c4.685,0,8.95-1.74,11.703-4.773c2.225-2.451,3.277-5.572,2.965-8.787l-0.49-5.043 l8.11,2.659c0.102,0.033,0.207,0.05,0.312,0.05c0.168,0,0.336-0.042,0.486-0.126c0.243-0.136,0.419-0.367,0.485-0.637 C54.03,31.123,49.888,26.332,48.273,24.674z M9.802,14.14c0.274-0.045,0.519-0.202,0.673-0.434s0.204-0.518,0.139-0.788 c-0.087-0.364-0.132-0.739-0.132-1.113c0-2.895,2.636-5.25,5.875-5.25c0.931,0,1.82,0.189,2.645,0.561 c0.257,0.115,0.551,0.118,0.81,0.006c0.259-0.112,0.458-0.329,0.549-0.595c0.746-2.191,3.058-3.722,5.622-3.722 c2.574,0,4.826,1.474,5.604,3.668c0.109,0.31,0.364,0.545,0.681,0.631c0.314,0.086,0.655,0.012,0.906-0.201 c1.222-1.03,2.818-1.598,4.497-1.598c3.578,0,6.46,2.507,6.561,5.707c0.013,0.423,0.291,0.792,0.693,0.921 c2.876,0.923,4.809,3.383,4.809,6.122c0,3.584-3.252,6.5-7.25,6.5c-1.671,0-3.302-0.522-4.593-1.471 c-0.218-0.16-0.49-0.226-0.756-0.181c-0.266,0.044-0.503,0.194-0.657,0.416c-1.082,1.557-2.949,2.486-4.994,2.486 c-1.856,0-3.624-0.799-4.729-2.136c-0.19-0.23-0.474-0.363-0.771-0.363s-0.581,0.133-0.771,0.363 c-1.105,1.337-2.872,2.136-4.729,2.136s-3.624-0.799-4.729-2.136c-0.329-0.397-0.906-0.482-1.335-0.189 c-1.031,0.703-2.263,1.075-3.561,1.075c-3.239,0-5.875-2.355-5.875-5.25C4.982,16.765,7.009,14.593,9.802,14.14z M1.998,34.084 c-0.019-4.063,4.755-8.493,4.808-8.541c0.007-0.007,0.01-0.016,0.017-0.023c1.065,0.589,2.291,0.949,3.604,1.015l-0.48,4.942 L1.998,34.084z M39.578,46.189c-2.374,2.616-6.1,4.117-10.222,4.117h-5.448c-4.122,0-7.849-1.5-10.223-4.116 c-1.84-2.028-2.712-4.603-2.455-7.25l1.218-12.537c0-0.003-0.001-0.006-0.001-0.009c0.827-0.156,1.623-0.418,2.356-0.811 c1.48,1.422,3.503,2.224,5.679,2.224c2.089,0,4.039-0.739,5.5-2.057c1.461,1.318,3.411,2.057,5.5,2.057 c2.354,0,4.541-0.95,6.027-2.582c1.006,0.588,2.135,0.976,3.307,1.174c0,0.001,0,0.002,0,0.004l1.218,12.537 C42.291,41.586,41.419,44.161,39.578,46.189z M43.323,31.529l-0.485-4.99c1.301-0.046,2.531-0.338,3.641-0.83 c0.844,0.824,4.651,4.741,4.634,8.375L43.323,31.529z"></path></g></g></svg>