<!-- icon666.com - MILLIONS vector ICONS FREE --><svg xmlns="http://www.w3.org/2000/svg" id="Layer_1" data-name="Layer 1" viewBox="0 0 64 64"><path d="M44,51C30.608,51,25.5,45.167,21.777,40.907,20,38.881,18.6,37.281,16.835,36.986c-.955-.159-2-.292-3.073-.43C7.631,35.769,0,34.79,0,28c0-9,17.146-9,37-9,6.6,0,12.127,1.061,16.436,3.154a1,1,0,0,1-.874,1.8C48.527,21.994,43.291,21,37,21,19,21,2,21,2,28c0,4.66,5.208,5.7,12.017,6.572,1.1.141,2.169.279,3.147.442,2.474.412,4.163,2.342,6.118,4.576C26.757,43.562,31.516,49,44,49c7.936,0,13.324-1.375,16.015-4.084A7.27,7.27,0,0,0,62,39.25V39a15.849,15.849,0,0,0-6.363-13.2A1,1,0,0,1,56.827,24.2,17.684,17.684,0,0,1,64,39v.236a9.273,9.273,0,0,1-2.567,7.089C58.352,49.427,52.486,51,44,51Z"></path><path d="M44,59C30.608,59,25.5,53.167,21.777,48.907,20,46.881,18.6,45.281,16.835,44.986c-.955-.159-2-.292-3.073-.43C7.631,43.769,0,42.79,0,36V34a1,1,0,0,1,2,0v2c0,4.66,5.208,5.7,12.017,6.572,1.1.141,2.169.279,3.147.442,2.474.412,4.163,2.342,6.118,4.576C26.757,51.562,31.516,57,44,57c7.936,0,13.324-1.375,16.015-4.084A7.27,7.27,0,0,0,62,47.25V40a1,1,0,0,1,2,0v7.236a9.273,9.273,0,0,1-2.567,7.089C58.352,57.427,52.486,59,44,59Z"></path><path d="M47,48a1,1,0,0,1-.707-.293l-24-24a1,1,0,0,1,1.414-1.414l24,24A1,1,0,0,1,47,48Z"></path><path d="M36,47a1,1,0,0,1-.707-.293l-22-22a1,1,0,0,1,1.415-1.414l22,22A1,1,0,0,1,36,47Z"></path><path d="M12,33a1,1,0,0,1-.708-.293l-6-6a1,1,0,0,1,1.414-1.414l6,6A1,1,0,0,1,12,33Z"></path><path d="M55,46a1,1,0,0,1-.707-.293l-22-22a1,1,0,0,1,1.414-1.414l22,22A1,1,0,0,1,55,46Z"></path><path d="M60,41a1,1,0,0,1-.707-.293l-16-16a1,1,0,0,1,1.414-1.414l16,16A1,1,0,0,1,60,41Z"></path><path d="M29,14a1,1,0,0,1-.665-1.748c.249-.231,1.451-1.537-.135-3.652-2.217-2.955-.881-5.444.135-6.348a1,1,0,0,1,1.337,1.489c-.26.243-1.456,1.548.128,3.659,2.217,2.955.881,5.444-.135,6.348A1,1,0,0,1,29,14Z"></path><path d="M40,18a1,1,0,0,1-.665-1.748c.249-.231,1.451-1.537-.135-3.652-2.217-2.955-.881-5.444.135-6.348a1,1,0,0,1,1.337,1.489c-.26.243-1.456,1.548.128,3.659,2.217,2.955.881,5.444-.135,6.348A1,1,0,0,1,40,18Z"></path><path d="M18,18a1,1,0,0,1-.665-1.748c.249-.231,1.451-1.537-.135-3.652-2.217-2.955-.881-5.444.135-6.348a1,1,0,0,1,1.337,1.489c-.26.243-1.456,1.548.128,3.659,2.217,2.955.881,5.444-.135,6.348A1,1,0,0,1,18,18Z"></path></svg>